<?xml version="1.0" encoding="utf-8"?>
<!-- Generator: Adobe Illustrator 23.0.3, SVG Export Plug-In . SVG Version: 6.00 Build 0)  -->
<svg version="1.1" id="Layer_1" xmlns="http://www.w3.org/2000/svg" xmlns:xlink="http://www.w3.org/1999/xlink" x="0px" y="0px"
	 viewBox="0 0 62.4 62.4" style="enable-background:new 0 0 62.4 62.4;" xml:space="preserve">
	 
<style type="text/css">
	.st0{fill:#FDCA47;stroke:#231F20;stroke-width:4;stroke-miterlimit:10;}
	.st1{fill:#20201E;}
	.st2{fill:#D05F58;stroke:#231F20;stroke-width:4;stroke-linecap:round;stroke-linejoin:round;stroke-miterlimit:10;}
	.st3{fill:#FFFFFF;stroke:#231F20;stroke-width:4;stroke-linecap:round;stroke-linejoin:round;stroke-miterlimit:10;}
	.st4{fill:none;stroke:#231F20;stroke-width:4;stroke-linecap:round;stroke-miterlimit:10;}
	.st5{fill:#FFFFFF;stroke:#231F20;stroke-width:4;stroke-linecap:round;stroke-miterlimit:10;}
	.st6{fill:#D05F58;stroke:#231F20;stroke-width:4;stroke-linecap:round;stroke-miterlimit:10;}
	.st7{fill:none;stroke:#231F20;stroke-width:4;stroke-linecap:round;stroke-linejoin:round;stroke-miterlimit:10;}
</style>
<circle class="st0" cx="31.2" cy="31.2" r="28.3"/>
<path class="st2" d="M45.4,37c0,0-2.5,9.9-13.7,9.9h-0.5c-11.2,0-13.7-9.9-13.7-9.9H45.4z"/>
<g>
	<path class="st3" d="M28.2,21.3c0,0-1.4,8.8-7.7,8.8h-0.3c-6.3,0-7.7-8.8-7.7-8.8H28.2z"/>
	<path class="st3" d="M49.9,21.3c0,0-1.4,8.8-7.7,8.8h-0.3c-6.3,0-7.7-8.8-7.7-8.8H49.9z"/>
</g>
<polyline class="st7" points="3.8,26.3 13.9,20.5 49.9,20.5 58.5,24.7 "/>
</svg>